# xmcd CD database file
#
# Track frame offsets:
#	150
#	26248
#	44453
#	70491
#	95286
#	108485
#	134855
#	153769
#	176368
#	202573
#
# Disc length: 2974 seconds
#
# Revision: 0
# Processed by: cddbd v1.5.2PL0 Copyright (c) Steve Scherf et al.
# Submitted via: CDex 1.70beta3
#
DISCID=840b9c0a
DTITLE=Keiko Matsui - Soul Quest
DYEAR=2013
DGENRE=Jazz
TTITLE0=Dream Seeker
TTITLE1=Black Lion
TTITLE2=Top Secret
TTITLE3=A Night With Cha Cha
TTITLE4=Moving Mountain
TTITLE5=Antarctica - A Call To Action
TTITLE6=Soul Quest
TTITLE7=Proof
TTITLE8=Two Hearts
TTITLE9=Stingo
EXTD=YEAR: 2013
EXTT0=
EXTT1=
EXTT2=
EXTT3=
EXTT4=
EXTT5=
EXTT6=
EXTT7=
EXTT8=
EXTT9=
PLAYORDER=
